<svg xmlns="http://www.w3.org/2000/svg" viewBox="0 0 2500 2500"><defs><style>.cls-1{fill:#f9bdb8;}.cls-2{fill:#fa4333;}.cls-3{fill:#fa7c71;}.cls-4{fill:#fa988f;}.cls-5{fill:#fa6055;}</style></defs><g id="red-2d"><polygon class="cls-1" points="706.99 1219 707.17 1219.32 1250.22 1219.32 1794.21 1219.32 1250.22 276.68 1250.21 276.67 706.99 1219"/><polygon class="cls-2" points="649.33 1320.1 392.12 1764.77 1162.55 2209.58 649.68 1320.1 649.33 1320.1"/><polygon class="cls-3" points="1897.36 1250.49 2123.97 1642.77 2124.03 1642.74 2124.03 1250.49 2124.03 857.8 1897.36 1250.49 1897.36 1250.49"/><polygon class="cls-2" points="1856.33 1320.12 1856.32 1320.1 1342.54 2209.58 2113.13 1764.68 1856.32 1320.1 1856.33 1320.12"/><polygon class="cls-3" points="648.85 1182.56 648.86 1182.58 1162.63 293.09 392.04 738 648.86 1182.58 648.85 1182.56"/><polygon class="cls-4" points="1855.84 1182.58 2113.06 737.91 1342.62 293.09 1855.5 1182.58 1855.84 1182.58"/><polygon class="cls-5" points="609.28 1249.88 382.67 857.6 382.61 857.64 382.61 1249.88 382.61 1642.57 609.28 1249.88 609.28 1249.88"/><polygon class="cls-3" points="1794.21 1282.51 1794.03 1282.19 1250.98 1282.19 706.99 1282.19 1250.98 2224.83 1250.99 2224.84 1794.21 1282.51"/><path class="cls-3" d="M1250,95.88,250.07,673.19l-.07,0v1154.7l1000,577.35,1000-577.35V673.23Zm933.45,615.47V1788.8l-933.33,538.86L316.79,1788.8V711.07l.06,0,933.27-538.83,933.33,538.87Z"/></g></svg>