<svg xmlns="http://www.w3.org/2000/svg" viewBox="0 0 2500 2500"><defs><style>.cls-1,.cls-7{fill:none;stroke:#000;stroke-width:5px;}.cls-1{stroke-linecap:round;stroke-linejoin:round;}.cls-2{fill:#b7b7b7;}.cls-3{fill:#c9c9c9;}.cls-4{fill:#eaeaea;}.cls-5{fill:#b1b1b1;}.cls-6{fill:#d8d8d8;}.cls-7{stroke-miterlimit:10;}</style></defs><g id="orange-cube"><polyline class="cls-1" points="1281.16 95.31 1281.1 95.34 1281.1 1250.05 2281.1 1827.4"/><polyline class="cls-1" points="1281.1 95.47 1281.1 1249.88 281.1 1827.23"/><polygon class="cls-2" points="861.82 1250.48 861.68 1250.24 651.32 886.29 651.09 886.42 651.09 1250.48 651.09 1613.88 651.27 1613.99 861.54 1250.48 861.82 1250.48"/><polygon class="cls-3" points="1281.08 522.7 1281.08 522.69 651.32 886.29 861.68 1250.24 1281.08 522.7"/><polygon class="cls-4" points="861.68 1250.24 861.82 1250.48 1281.09 1250.48 1701.08 1250.48 1281.09 522.71 1281.08 522.7 861.68 1250.24"/><polygon class="cls-3" points="1701.08 1250.48 1281.09 1250.48 861.82 1250.48 1281.09 1977.61 1701.08 1250.48 1701.08 1250.48"/><polygon class="cls-5" points="861.54 1250.48 651.27 1613.99 1281.09 1977.61 861.82 1250.48 861.54 1250.48"/><polygon class="cls-6" points="1281.09 522.69 1281.09 522.71 1701.08 1250.48 1701.08 1250.48 1911.09 886.67 1911.09 886.42 1281.09 522.69"/><polygon class="cls-3" points="1701.08 1250.48 1911.02 1613.92 1911.09 1613.88 1911.09 1250.48 1911.09 886.67 1701.08 1250.48 1701.08 1250.48"/><polygon class="cls-5" points="1701.09 1250.5 1701.08 1250.48 1281.09 1977.61 1911.02 1613.92 1701.08 1250.48 1701.09 1250.5"/><polyline class="cls-1" points="1281.09 441.88 1281.1 95.23 2281.1 672.59 2281.1 672.88"/><line class="cls-7" x1="281.16" y1="672.55" x2="1281.1" y2="95.23"/><polyline class="cls-1" points="2281.1 672.88 2281.1 1827.29 1281.1 2404.64"/><polyline class="cls-1" points="281.16 672.55 281.1 672.59 281.1 1827.29 1281.1 2404.64"/><line class="cls-1" x1="1281.1" y1="2404.64" x2="1281.1" y2="1250.16"/><polyline class="cls-1" points="2281.1 672.88 1281.16 1250.19 1281.1 1250.16"/><polyline class="cls-1" points="281.16 672.55 281.16 672.84 1281.1 1250.16"/></g></svg>