<svg xmlns="http://www.w3.org/2000/svg" viewBox="0 0 2500 2500"><defs><style>.cls-1,.cls-4,.cls-9{fill:none;}.cls-1,.cls-9{stroke:#000;stroke-width:5px;}.cls-1{stroke-linecap:round;stroke-linejoin:round;}.cls-2{fill:#373737;}.cls-3{fill:#5b5b5b;}.cls-5{fill:#cdcdcd;}.cls-6{fill:#5c5c5c;}.cls-7{fill:#333;}.cls-8{fill:#828282;}.cls-9{stroke-miterlimit:10;}</style></defs><g id="THE-CUBE"><polyline class="cls-1" points="1281.1 95.47 1281.1 1249.88 281.1 1827.23"/><polyline class="cls-1" points="1281.16 95.31 1281.1 95.34 1281.1 1250.05 2281.1 1827.4"/><g id="icosphere"><polygon class="cls-2" points="815.24 1250.52 815.08 1250.25 581.34 845.86 581.09 846.01 581.09 1250.52 581.09 1654.3 581.29 1654.42 814.93 1250.52 815.24 1250.52"/><polygon class="cls-3" points="1281.08 441.87 1281.08 441.87 581.34 845.86 815.08 1250.25 1281.08 441.87"/><polygon class="cls-4" points="1281.09 441.86 1281.08 441.87 1281.08 441.87 1281.09 441.86"/><polygon class="cls-4" points="1747.75 1250.52 1747.75 1250.52 1747.75 1250.52 1747.75 1250.52"/><polygon class="cls-4" points="1281.09 441.88 1281.09 441.86 1281.08 441.87 1281.09 441.88"/><polygon class="cls-5" points="815.08 1250.25 815.24 1250.52 1281.09 1250.52 1747.75 1250.52 1281.09 441.88 1281.08 441.87 815.08 1250.25"/><polygon class="cls-6" points="1747.75 1250.52 1281.09 1250.52 815.24 1250.52 1281.09 2058.44 1747.75 1250.52 1747.75 1250.52"/><polygon class="cls-7" points="814.93 1250.52 581.29 1654.42 1281.09 2058.44 815.24 1250.52 814.93 1250.52"/><polygon class="cls-8" points="1281.09 441.86 1281.09 441.88 1747.75 1250.52 1747.75 1250.52 1981.09 846.28 1981.09 846.01 1281.09 441.86"/><polygon class="cls-3" points="1747.75 1250.52 1981.02 1654.34 1981.09 1654.3 1981.09 1250.52 1981.09 846.28 1747.75 1250.52 1747.75 1250.52"/><polygon class="cls-2" points="1747.76 1250.53 1747.75 1250.52 1281.09 2058.44 1981.02 1654.34 1747.75 1250.52 1747.76 1250.53"/></g><polyline class="cls-1" points="1281.09 441.88 1281.1 95.23 2281.1 672.59 2281.1 672.88"/><line class="cls-9" x1="281.16" y1="672.55" x2="1281.1" y2="95.23"/><polyline class="cls-1" points="2281.1 672.88 2281.1 1827.29 1281.1 2404.64"/><polyline class="cls-1" points="281.16 672.55 281.1 672.59 281.1 1827.29 1281.1 2404.64"/><line class="cls-1" x1="1281.1" y1="2404.64" x2="1281.1" y2="1250.16"/><polyline class="cls-1" points="2281.1 672.88 1281.16 1250.19 1281.1 1250.16"/><polyline class="cls-1" points="281.16 672.55 281.16 672.84 1281.1 1250.16"/></g></svg>