<svg xmlns="http://www.w3.org/2000/svg" viewBox="0 0 4242.15 2500"><defs><style>.cls-1{fill:#263573;}.cls-2{fill:#fff;}.cls-3{fill:none;stroke:#fff;stroke-miterlimit:10;stroke-width:50px;}</style></defs><g id="blue-2d-typography"><rect class="cls-1" y="2.08" width="4242.15" height="2500"/><g id="typography"><path class="cls-2" d="M2810.59,1397.43c0,113.84-94.24,183.83-248.21,183.83s-246.34-70-246.34-183.83c0-82.11,50.39-139,139-162.36-74.65-24.26-115.7-75.58-115.7-147.43,0-104.51,87.71-168.9,223-168.9s224.89,64.39,224.89,168.9c0,71.85-42,123.17-117.58,147.43C2759.27,1258.4,2810.59,1316.25,2810.59,1397.43Zm-47.59,0c0-86.78-74.65-141.83-200.62-141.83s-198.75,55.05-198.75,141.83c0,87.72,72.78,142.77,198.75,142.77S2763,1485.15,2763,1397.43Zm-200.62-181c111,0,177.3-49.46,177.3-126.91,0-80.25-69-129.7-177.3-129.7S2387,1009.25,2387,1088.57C2387,1167,2451.34,1216.41,2562.38,1216.41Z"/><path class="cls-2" d="M3073.72,923.41v653.18h-47.59V966.33H2866.57V923.41Z"/><path class="cls-2" d="M3460,1316.25,3333.13,1432v144.63h-46.66V923.41h46.66v450.7l311.66-284.61h59.72l-210,196.89L3725,1576.59h-57.86Z"/></g><g id="logo"><path class="cls-3" d="M1250,326.22,450,788.08l0,0v923.78l800,461.89,800-461.89V788.11Z"/><line class="cls-3" x1="1249.98" y1="326.22" x2="449.98" y2="1711.89"/><line class="cls-3" x1="2049.98" y1="1711.89" x2="1249.98" y2="326.22"/><line class="cls-3" x1="1251.38" y1="2173.78" x2="2049.98" y2="788.35"/><line class="cls-3" x1="450.03" y1="788.08" x2="1251.38" y2="2173.78"/><line class="cls-3" x1="716.86" y1="1249.48" x2="1784.17" y2="1249.48"/></g></g></svg>