<svg xmlns="http://www.w3.org/2000/svg" viewBox="0 0 4242.15 2500"><defs><style>.cls-1{fill:#c2cde9;}.cls-2{fill:#3e5ca5;}.cls-3{fill:#253164;}.cls-4{fill:#6d81bf;}.cls-5{fill:#263573;}</style></defs><g id="white-3d-typography"><g id="logo"><polygon class="cls-1" points="717.4 1250.11 717.58 1250.42 1249.98 1250.42 1783.31 1250.42 1249.98 326.26 1249.97 326.25 717.4 1250.11"/><polygon class="cls-2" points="1783.31 1250.42 1249.98 1250.42 717.58 1250.42 1249.98 2173.76 1783.31 1250.42 1783.31 1250.42"/><polygon class="cls-3" points="717.23 1250.42 450.22 1712.02 1249.98 2173.76 717.58 1250.42 717.23 1250.42"/><polygon class="cls-4" points="1249.98 326.24 1249.98 326.26 1783.31 1250.42 1783.31 1250.42 2049.98 788.43 2049.98 788.12 1249.98 326.24"/><polygon class="cls-2" points="1783.31 1250.42 2049.9 1711.93 2049.98 1711.88 2049.98 1250.42 2049.98 788.43 1783.31 1250.42 1783.31 1250.42"/><polygon class="cls-2" points="1249.97 326.25 1249.97 326.25 450.27 787.95 717.4 1250.11 1249.97 326.25"/><polygon class="cls-5" points="717.58 1250.42 717.4 1250.11 450.27 787.95 449.98 788.12 449.98 1250.42 449.98 1711.88 450.22 1712.02 717.23 1250.42 717.58 1250.42"/><polygon class="cls-5" points="1783.32 1250.44 1783.31 1250.42 1249.98 2173.76 2049.9 1711.93 1783.31 1250.42 1783.32 1250.44"/></g><path class="cls-5" d="M2810.59,1397.43c0,113.84-94.24,183.83-248.21,183.83s-246.34-70-246.34-183.83c0-82.11,50.39-139,139-162.36-74.65-24.26-115.7-75.58-115.7-147.43,0-104.51,87.71-168.9,223-168.9s224.89,64.39,224.89,168.9c0,71.85-42,123.17-117.58,147.43C2759.27,1258.4,2810.59,1316.25,2810.59,1397.43Zm-47.59,0c0-86.78-74.65-141.83-200.62-141.83s-198.75,55.05-198.75,141.83c0,87.72,72.78,142.77,198.75,142.77S2763,1485.15,2763,1397.43Zm-200.62-181c111,0,177.3-49.46,177.3-126.91,0-80.25-69-129.7-177.3-129.7S2387,1009.25,2387,1088.57C2387,1167,2451.34,1216.41,2562.38,1216.41Z"/><path class="cls-5" d="M3073.72,923.41v653.18h-47.59V966.33H2866.57V923.41Z"/><path class="cls-5" d="M3460,1316.25,3333.13,1432v144.63h-46.66V923.41h46.66v450.7l311.66-284.61h59.72l-210,196.89L3725,1576.59h-57.86Z"/></g></svg>