<svg xmlns="http://www.w3.org/2000/svg" viewBox="0 0 2500 2500"><defs><style>.cls-1,.cls-7{fill:none;stroke:#000;stroke-width:5px;}.cls-1{stroke-linecap:round;stroke-linejoin:round;}.cls-2{fill:#e0d3f5;}.cls-3{fill:#cb9cf5;}.cls-4{fill:#b454f4;}.cls-5{fill:#d1b2f5;}.cls-6{fill:#ba78f5;}.cls-7{stroke-miterlimit:10;}</style></defs><g id="purple-cube"><polyline class="cls-1" points="1281.1 95.47 1281.1 1249.88 281.1 1827.23"/><polyline class="cls-1" points="1281.16 95.31 1281.1 95.34 1281.1 1250.05 2281.1 1827.4"/><polygon class="cls-2" points="861.7 1250.09 861.84 1250.33 1281.1 1250.33 1701.1 1250.33 1281.1 522.56 1281.09 522.55 861.7 1250.09"/><polygon class="cls-3" points="1701.1 1250.33 1281.1 1250.33 861.84 1250.33 1281.1 1977.46 1701.1 1250.33 1701.1 1250.33"/><polygon class="cls-4" points="861.55 1250.33 651.29 1613.84 1281.1 1977.46 861.84 1250.33 861.55 1250.33"/><polygon class="cls-5" points="1281.1 522.54 1281.1 522.56 1701.1 1250.33 1701.1 1250.33 1911.1 886.52 1911.1 886.27 1281.1 522.54"/><polygon class="cls-3" points="1701.1 1250.33 1911.04 1613.77 1911.1 1613.73 1911.1 1250.33 1911.1 886.52 1701.1 1250.33 1701.1 1250.33"/><polygon class="cls-4" points="1701.1 1250.35 1701.1 1250.33 1281.1 1977.46 1911.04 1613.77 1701.1 1250.33 1701.1 1250.35"/><polygon class="cls-6" points="861.84 1250.33 861.7 1250.09 651.33 886.14 651.1 886.27 651.1 1250.33 651.1 1613.73 651.29 1613.84 861.55 1250.33 861.84 1250.33"/><polygon class="cls-3" points="1281.09 522.55 1281.09 522.54 651.33 886.14 861.7 1250.09 1281.09 522.55"/><polyline class="cls-1" points="2281.1 672.88 1281.16 1250.19 1281.1 1250.16"/><polyline class="cls-1" points="281.16 672.55 281.16 672.84 1281.1 1250.16"/><line class="cls-1" x1="1281.1" y1="2404.64" x2="1281.1" y2="1250.16"/><polyline class="cls-1" points="1281.09 441.88 1281.1 95.23 2281.1 672.59 2281.1 672.88"/><line class="cls-7" x1="281.16" y1="672.55" x2="1281.1" y2="95.23"/><polyline class="cls-1" points="2281.1 672.88 2281.1 1827.29 1281.1 2404.64"/><polyline class="cls-1" points="281.16 672.55 281.1 672.59 281.1 1827.29 1281.1 2404.64"/></g></svg>