<svg xmlns="http://www.w3.org/2000/svg" viewBox="0 0 2500 2500"><defs><style>.cls-1{fill:#ccc;}.cls-2{fill:#959595;}.cls-3{fill:#656565;}.cls-4{fill:#a7a7a7;}.cls-5{fill:#747474;}</style></defs><g id="blue-3d"><polygon class="cls-1" points="584.27 1250.35 584.49 1250.74 1249.99 1250.74 1916.65 1250.74 1249.99 95.54 1249.98 95.53 584.27 1250.35"/><polygon class="cls-2" points="1916.65 1250.74 1249.99 1250.74 584.49 1250.74 1249.99 2404.92 1916.65 1250.74 1916.65 1250.74"/><polygon class="cls-3" points="584.04 1250.74 250.28 1827.74 1249.99 2404.92 584.49 1250.74 584.04 1250.74"/><polygon class="cls-4" points="1249.99 95.52 1249.99 95.54 1916.65 1250.74 1916.65 1250.74 2249.99 673.26 2249.99 672.87 1249.99 95.52"/><polygon class="cls-2" points="1916.65 1250.74 2249.89 1827.62 2249.99 1827.57 2249.99 1250.74 2249.99 673.26 1916.65 1250.74 1916.65 1250.74"/><polygon class="cls-3" points="1916.66 1250.76 1916.65 1250.74 1249.99 2404.92 2249.89 1827.62 1916.65 1250.74 1916.66 1250.76"/><polygon class="cls-5" points="584.49 1250.74 584.27 1250.35 250.35 672.66 249.99 672.87 249.99 1250.74 249.99 1827.57 250.28 1827.74 584.04 1250.74 584.49 1250.74"/><polygon class="cls-2" points="1249.98 95.53 1249.97 95.52 250.35 672.66 584.27 1250.35 1249.98 95.53"/></g></svg>